<svg t="1552200214992" class="icon" style="" viewBox="0 0 1024 1024" version="1.1" xmlns="http://www.w3.org/2000/svg" p-id="2829" xmlns:xlink="http://www.w3.org/1999/xlink" width="48" height="48"><defs></defs><path d="M925.98784 275.4304a29.56288 29.56288 0 0 1 29.56288-29.568 29.568 29.568 0 0 0-29.56288-29.568H364.13952v591.4112h561.84832a29.568 29.568 0 0 0 29.56288-29.56288c-16.3328 0-29.56288-13.24032-29.56288-29.568s13.23008-29.568 29.56288-29.568V659.8656a29.56288 29.56288 0 0 1 0-59.13088v-59.15648a29.56288 29.56288 0 1 1 0-59.13088V423.28576a29.55776 29.55776 0 0 1-29.55264-29.55776 29.55776 29.55776 0 0 1 29.55264-29.57824V305.00352a29.56288 29.56288 0 0 1-29.56288-29.57312z m-160.29696 310.67136h-84.66944v63.49824a21.17632 21.17632 0 0 1-42.3424 0v-63.49824h-84.66944a21.17632 21.17632 0 0 1 0-42.3424h84.66944v-42.32704h-84.66944a21.17632 21.17632 0 0 1-21.1712-21.16608 21.17632 21.17632 0 0 1 21.1712-21.16608h75.90912l-69.72928-69.6832a21.19168 21.19168 0 1 1 29.97248-29.97248l69.67808 69.72416 69.67808-69.72416a21.19168 21.19168 0 1 1 29.97248 29.97248l-69.72416 69.6832h75.904a21.1712 21.1712 0 0 1 0 42.33216H681.0112v42.33728h84.67968v-0.01024c11.68896 0 21.16096 9.48224 21.16096 21.1712s-9.472 21.1712-21.16096 21.1712zM305.00352 807.71072h-207.0016a29.568 29.568 0 0 1-29.56288-29.568v-207.0016c32.66048 0.01024 59.15648-26.44992 59.16672-59.1104 0.01024-32.6656-26.44992-59.15648-59.12064-59.17184h-0.04608V245.8624a29.568 29.568 0 0 1 29.56288-29.568h207.0016v591.41632z" fill="#d81e06" p-id="2830"></path></svg>