<svg t="1554604193144" class="icon" style="" viewBox="0 0 1024 1024" version="1.1" xmlns="http://www.w3.org/2000/svg" p-id="2831" xmlns:xlink="http://www.w3.org/1999/xlink" width="16" height="16"><defs></defs><path d="M0 0h1024v1024H0z" fill="#FFFFFF" p-id="2832"></path><path d="M881.6 927.8c-11.8 0-23.6-4.5-32.7-13.5L109.7 175c-18-18-18-47.3 0-65.3s47.3-18 65.3 0L914.3 849c18 18 18 47.3 0 65.3-9 9-20.9 13.5-32.7 13.5z" fill="#D43E00" p-id="2833"></path><path d="M142.4 927.8c-11.8 0-23.6-4.5-32.7-13.5-18-18-18-47.3 0-65.3L849 109.7c18-18 47.3-18 65.3 0s18 47.3 0 65.3L175 914.3c-9 9-20.8 13.5-32.6 13.5z" fill="#D43E00" p-id="2834"></path></svg>