<?xml version="1.0" standalone="no"?><!DOCTYPE svg PUBLIC "-//W3C//DTD SVG 1.1//EN" "http://www.w3.org/Graphics/SVG/1.1/DTD/svg11.dtd"><svg t="1551623859599" class="icon" style="" viewBox="0 0 1024 1024" version="1.1" xmlns="http://www.w3.org/2000/svg" p-id="3194" xmlns:xlink="http://www.w3.org/1999/xlink" width="16" height="16"><defs><style type="text/css"></style></defs><path d="M532.48 622.7968L581.12 573.44l238.26432 241.7664a35.15392 35.15392 0 0 1 0 49.3568 34.14016 34.14016 0 0 1-48.64 0L532.48 622.7968zM399.36 665.6c-147.0464 0-266.24-119.1936-266.24-266.24s119.1936-266.24 266.24-266.24 266.24 119.1936 266.24 266.24-119.1936 266.24-266.24 266.24z m0-40.96c124.416 0 225.28-100.864 225.28-225.28s-100.864-225.28-225.28-225.28-225.28 100.864-225.28 225.28 100.864 225.28 225.28 225.28z" fill="#4D4D4D" p-id="3195"></path></svg>